<svg fill="none" height="47" viewBox="0 0 826 47" width="826" xmlns="http://www.w3.org/2000/svg"><path d="m.639036 22.96c0-2.7307.469334-5.44 1.408004-8.128.98133-2.7307 2.38933-5.16267 4.224-7.296 1.87733-2.176 4.15996-3.92533 6.84796-5.248 2.688-1.322669 5.7387-1.984003 9.152-1.984003 4.0534 0 7.5307.917333 10.432 2.752003 2.9014 1.83467 5.056 4.224 6.464 7.168l-4.544 2.944c-.6826-1.4507-1.5146-2.6667-2.496-3.648-.9386-.98134-1.984-1.77067-3.136-2.368-1.1093-.59734-2.2613-1.024-3.456-1.28-1.1946-.256-2.368-.384-3.52-.384-2.5173 0-4.7573.53333-6.72 1.6-1.92 1.024-3.5413 2.38933-4.864 4.096-1.32263 1.664-2.3253 3.5627-3.00796 5.696-.64 2.0907-.96 4.2027-.96 6.336 0 2.3893.384 4.672 1.152 6.848.81066 2.1333 1.92 4.032 3.32796 5.696 1.408 1.664 3.072 2.9867 4.992 3.968s4.0107 1.472 6.272 1.472c1.1947 0 2.4107-.1493 3.648-.448 1.28-.2987 2.496-.768 3.648-1.408 1.152-.6827 2.2187-1.5147 3.2-2.496 1.024-1.024 1.856-2.24 2.496-3.648l4.8 2.624c-.7253 1.7067-1.7493 3.2213-3.072 4.544-1.28 1.28-2.752 2.368-4.416 3.264-1.6213.896-3.3493 1.5787-5.184 2.048-1.8346.4693-3.6266.704-5.376.704-3.1146 0-5.9733-.6827-8.576-2.048-2.6026-1.3653-4.86396-3.136-6.78396-5.312-1.87734-2.2187-3.34934-4.7147-4.416-7.488-1.024-2.816-1.536004-5.6747-1.536004-8.576zm62.696964 18.176c2.6454 0 4.8427-.512 6.592-1.536 1.7494-1.024 3.136-2.3467 4.16-3.968 1.0667-1.664 1.8134-3.5413 2.24-5.632.4267-2.1333.64-4.288.64-6.464v-22.976002h5.76v22.976002c0 3.072-.3626 5.9947-1.088 8.768-.6826 2.7307-1.792 5.1413-3.328 7.232s-3.5413 3.7547-6.016 4.992c-2.432 1.1947-5.3973 1.792-8.896 1.792-3.6266 0-6.6773-.64-9.152-1.92-2.4746-1.28-4.48-2.9653-6.016-5.056-1.4933-2.1333-2.5813-4.5653-3.264-7.296-.64-2.7733-.96-5.6107-.96-8.512v-22.976002h5.76v22.976002c0 2.2613.2134 4.4587.64 6.592.4694 2.0907 1.216 3.9467 2.24 5.568 1.0667 1.6213 2.4534 2.944 4.16 3.968 1.7494.9813 3.9254 1.472 6.528 1.472zm53.753-31.04c-.512-.59734-1.195-1.17334-2.048-1.728-.854-.55467-1.814-1.04533-2.88-1.472-1.067-.46934-2.24-.832-3.52-1.088-1.238-.29867-2.539-.448-3.904-.448-3.542 0-6.1445.66133-7.8085 1.984-1.6213 1.32267-2.432 3.136-2.432 5.44 0 1.2373.2347 2.2613.704 3.072.4694.8107 1.1947 1.5147 2.176 2.112 1.024.5547 2.2827 1.0453 3.7765 1.472 1.493.4267 3.264.8747 5.312 1.344 2.346.512 4.458 1.1093 6.336 1.792 1.92.64 3.541 1.4507 4.864 2.432 1.365.9813 2.389 2.176 3.072 3.584.725 1.408 1.088 3.136 1.088 5.184 0 2.176-.427 4.0747-1.28 5.696-.854 1.5787-2.027 2.9013-3.52 3.968-1.451 1.024-3.179 1.792-5.184 2.304-2.006.4693-4.182.704-6.528.704-3.499 0-6.8271-.5333-9.9845-1.6-3.1146-1.1093-5.952-2.7093-8.512-4.8l2.752-4.864c.6827.7253 1.5574 1.4507 2.624 2.176 1.1094.7253 2.3467 1.3867 3.712 1.984 1.408.5547 2.9014 1.024 4.4805 1.408 1.621.3413 3.306.512 5.056.512 3.242 0 5.76-.576 7.552-1.728s2.688-2.88 2.688-5.184c0-1.28-.299-2.3467-.896-3.2-.555-.896-1.387-1.664-2.496-2.304-1.11-.64-2.496-1.1947-4.16-1.664-1.622-.512-3.478-1.024-5.568-1.536-2.304-.5547-4.3311-1.152-6.0805-1.792-1.7493-.64-3.2213-1.408-4.416-2.304-1.152-.896-2.0266-1.984-2.624-3.264-.5973-1.28-.896-2.816-.896-4.608 0-2.176.4054-4.096 1.216-5.76.8107-1.664 1.9414-3.072 3.392-4.224 1.4507-1.152 3.1787-2.00534 5.184-2.56 2.0055-.597336 4.1815-.896002 6.5285-.896002 3.072 0 5.845.469334 8.32 1.408002 2.474.93867 4.672 2.19733 6.592 3.776zm42.52-4.416h-15.68v40.32h-5.76v-40.32h-15.68v-5.120002h37.12zm21.041 40.64c-3.2 0-6.123-.64-8.768-1.92-2.603-1.3227-4.843-3.0507-6.72-5.184-1.877-2.176-3.328-4.6507-4.352-7.424s-1.536-5.6107-1.536-8.512c0-3.0293.533-5.9307 1.6-8.704 1.109-2.7733 2.624-5.22667 4.544-7.36s4.181-3.81867 6.784-5.056c2.645-1.280003 5.504-1.920002 8.576-1.920002 3.2 0 6.101.682667 8.704 2.048002 2.603 1.32267 4.843 3.072 6.72 5.248s3.328 4.6507 4.352 7.424c1.024 2.7307 1.536 5.5253 1.536 8.384 0 3.0293-.555 5.9307-1.664 8.704-1.067 2.7733-2.56 5.2267-4.48 7.36-1.877 2.0907-4.139 3.776-6.784 5.056-2.603 1.2373-5.44 1.856-8.512 1.856zm-15.552-23.04c0 2.304.363 4.544 1.088 6.72.768 2.1333 1.835 4.032 3.2 5.696s3.008 2.9867 4.928 3.968 4.053 1.472 6.4 1.472c2.432 0 4.608-.512 6.528-1.536 1.92-1.0667 3.541-2.432 4.864-4.096 1.365-1.7067 2.389-3.6267 3.072-5.76.725-2.1333 1.088-4.288 1.088-6.464 0-2.304-.384-4.5227-1.152-6.656-.725-2.176-1.792-4.0747-3.2-5.696-1.365-1.664-3.008-2.98667-4.928-3.968-1.877-.98133-3.968-1.472-6.272-1.472-2.432 0-4.608.512-6.528 1.536s-3.563 2.368-4.928 4.032c-1.323 1.664-2.347 3.5627-3.072 5.696s-1.088 4.3093-1.088 6.528zm81.731 22.72v-35.136l-15.104 26.944h-3.264l-15.168-26.944v35.136h-5.76v-45.440002h6.08l16.448 29.504002 16.512-29.504002h6.016v45.440002zm35.841-2.736c1.488 0 2.724-.288 3.708-.864s1.764-1.32 2.34-2.232c.6-.936 1.02-1.992 1.26-3.168.24-1.2.36-2.412.36-3.636v-12.924h3.24v12.924c0 1.728-.204 3.372-.612 4.932-.384 1.536-1.008 2.892-1.872 4.068s-1.992 2.112-3.384 2.808c-1.368.672-3.036 1.008-5.004 1.008-2.04 0-3.756-.36-5.148-1.08s-2.52-1.668-3.384-2.844c-.84-1.2-1.452-2.568-1.836-4.104-.36-1.56-.54-3.156-.54-4.788v-12.924h3.24v12.924c0 1.272.12 2.508.36 3.708.264 1.176.684 2.22 1.26 3.132.6.912 1.38 1.656 2.34 2.232.984.552 2.208.828 3.672.828zm18.464-16.776v19.512h-3.24v-25.56h2.52l15.84 19.908v-19.872h3.24v25.524h-2.736zm23.023 19.512v-25.56h3.24v25.56zm7.912 0v-25.56h16.884v2.88h-13.644v8.532h11.484v2.7h-11.484v11.448zm29.459.18c-1.8 0-3.444-.36-4.932-1.08-1.464-.744-2.724-1.716-3.78-2.916-1.056-1.224-1.872-2.616-2.448-4.176s-.864-3.156-.864-4.788c0-1.704.3-3.336.9-4.896.624-1.56 1.476-2.94 2.556-4.14s2.352-2.148 3.816-2.844c1.488-.72 3.096-1.08 4.824-1.08 1.8 0 3.432.384 4.896 1.152 1.464.744 2.724 1.728 3.78 2.952s1.872 2.616 2.448 4.176c.576 1.536.864 3.108.864 4.716 0 1.704-.312 3.336-.936 4.896-.6 1.56-1.44 2.94-2.52 4.14-1.056 1.176-2.328 2.124-3.816 2.844-1.464.696-3.06 1.044-4.788 1.044zm-8.748-12.96c0 1.296.204 2.556.612 3.78.432 1.2 1.032 2.268 1.8 3.204s1.692 1.68 2.772 2.232 2.28.828 3.6.828c1.368 0 2.592-.288 3.672-.864 1.08-.6 1.992-1.368 2.736-2.304.768-.96 1.344-2.04 1.728-3.24.408-1.2.612-2.412.612-3.636 0-1.296-.216-2.544-.648-3.744-.408-1.224-1.008-2.292-1.8-3.204-.768-.936-1.692-1.68-2.772-2.232-1.056-.552-2.232-.828-3.528-.828-1.368 0-2.592.288-3.672.864s-2.004 1.332-2.772 2.268c-.744.936-1.32 2.004-1.728 3.204s-.612 2.424-.612 3.672zm23.869 12.78v-25.56h10.944c1.128 0 2.16.24 3.096.72.96.456 1.776 1.08 2.448 1.872.696.768 1.236 1.644 1.62 2.628.384.96.576 1.944.576 2.952 0 .888-.132 1.752-.396 2.592-.24.816-.6 1.56-1.08 2.232-.456.672-1.02 1.248-1.692 1.728-.648.48-1.38.828-2.196 1.044l6.192 9.792h-3.672l-5.832-9.18h-6.768v9.18zm3.24-12.06h7.74c.672 0 1.272-.144 1.8-.432.552-.288 1.02-.672 1.404-1.152.384-.504.684-1.08.9-1.728s.324-1.32.324-2.016c0-.72-.132-1.392-.396-2.016-.24-.648-.576-1.212-1.008-1.692-.408-.504-.9-.888-1.476-1.152-.552-.288-1.14-.432-1.764-.432h-7.524zm41.085 12.06v-19.764l-8.496 15.156h-1.836l-8.532-15.156v19.764h-3.24v-25.56h3.42l9.252 16.596 9.288-16.596h3.384v25.56z" fill="#979797"/><path d="m461.542.815998h5.44l6.016 15.808002 6.08-15.808002h5.44l-7.872 19.776002 7.808 18.752 15.36-38.784002h6.272l-19.008 45.440002h-4.992l-9.024-21.44-9.088 21.44h-4.992l-18.944-45.440002h6.208l15.424 38.784002 7.744-18.752zm57.999-.256h4.864l18.56 45.440002h-6.144l-5.376-13.312h-19.072l-5.312 13.312h-6.144zm10.624 27.648002-8.192-20.992-8.448 20.992zm16.304 17.792v-45.440002h19.456c2.006 0 3.84.426666 5.504 1.280002 1.707.81067 3.158 1.92 4.352 3.328 1.238 1.36533 2.198 2.92267 2.88 4.672.683 1.7067 1.024 3.456 1.024 5.248 0 1.5787-.234 3.1147-.704 4.608-.426 1.4507-1.066 2.7733-1.92 3.968-.81 1.1947-1.813 2.2187-3.008 3.072-1.152.8533-2.453 1.472-3.904 1.856l11.008 17.408h-6.528l-10.368-16.32h-12.032v16.32zm5.76-21.44h13.76c1.195 0 2.262-.256 3.2-.768.982-.512 1.814-1.1947 2.496-2.048.683-.896 1.216-1.92 1.6-3.072s.576-2.3467.576-3.584c0-1.28-.234-2.4747-.704-3.584-.426-1.152-1.024-2.15467-1.792-3.008-.725-.896-1.6-1.57867-2.624-2.048-.981-.512-2.026-.768-3.136-.768h-13.376zm64.591 16.32v5.12h-30.848v-45.440002h30.272v5.120002h-24.512v14.72h21.312v4.8h-21.312v15.68zm41.886-40.320002v45.440002h-5.76v-20.672h-25.024v20.672h-5.76v-45.440002h5.76v19.648002h25.024v-19.648002zm26.765 45.760002c-3.2 0-6.122-.64-8.768-1.92-2.602-1.3227-4.842-3.0507-6.72-5.184-1.877-2.176-3.328-4.6507-4.352-7.424s-1.536-5.6107-1.536-8.512c0-3.0293.534-5.9307 1.6-8.704 1.11-2.7733 2.624-5.22667 4.544-7.36s4.182-3.81867 6.784-5.056c2.646-1.280003 5.504-1.920002 8.576-1.920002 3.2 0 6.102.682667 8.704 2.048002 2.603 1.32267 4.843 3.072 6.72 5.248 1.878 2.176 3.328 4.6507 4.352 7.424 1.024 2.7307 1.536 5.5253 1.536 8.384 0 3.0293-.554 5.9307-1.664 8.704-1.066 2.7733-2.56 5.2267-4.48 7.36-1.877 2.0907-4.138 3.776-6.784 5.056-2.602 1.2373-5.44 1.856-8.512 1.856zm-15.552-23.04c0 2.304.363 4.544 1.088 6.72.768 2.1333 1.835 4.032 3.2 5.696 1.366 1.664 3.008 2.9867 4.928 3.968s4.054 1.472 6.4 1.472c2.432 0 4.608-.512 6.528-1.536 1.92-1.0667 3.542-2.432 4.864-4.096 1.366-1.7067 2.39-3.6267 3.072-5.76.726-2.1333 1.088-4.288 1.088-6.464 0-2.304-.384-4.5227-1.152-6.656-.725-2.176-1.792-4.0747-3.2-5.696-1.365-1.664-3.008-2.98667-4.928-3.968-1.877-.98133-3.968-1.472-6.272-1.472-2.432 0-4.608.512-6.528 1.536s-3.562 2.368-4.928 4.032c-1.322 1.664-2.346 3.5627-3.072 5.696-.725 2.1333-1.088 4.3093-1.088 6.528zm61.123 17.856c2.646 0 4.843-.512 6.592-1.536 1.75-1.024 3.136-2.3467 4.16-3.968 1.067-1.664 1.814-3.5413 2.24-5.632.427-2.1333.64-4.288.64-6.464v-22.976002h5.76v22.976002c0 3.072-.362 5.9947-1.088 8.768-.682 2.7307-1.792 5.1413-3.328 7.232s-3.541 3.7547-6.016 4.992c-2.432 1.1947-5.397 1.792-8.896 1.792-3.626 0-6.677-.64-9.152-1.92-2.474-1.28-4.48-2.9653-6.016-5.056-1.493-2.1333-2.581-4.5653-3.264-7.296-.64-2.7733-.96-5.6107-.96-8.512v-22.976002h5.76v22.976002c0 2.2613.214 4.4587.64 6.592.47 2.0907 1.216 3.9467 2.24 5.568 1.067 1.6213 2.454 2.944 4.16 3.968 1.75.9813 3.926 1.472 6.528 1.472zm53.753-31.04c-.512-.59734-1.195-1.17334-2.048-1.728-.853-.55467-1.813-1.04533-2.88-1.472-1.067-.46934-2.24-.832-3.52-1.088-1.237-.29867-2.539-.448-3.904-.448-3.541 0-6.144.66133-7.808 1.984-1.621 1.32267-2.432 3.136-2.432 5.44 0 1.2373.235 2.2613.704 3.072s1.195 1.5147 2.176 2.112c1.024.5547 2.283 1.0453 3.776 1.472s3.264.8747 5.312 1.344c2.347.512 4.459 1.1093 6.336 1.792 1.92.64 3.541 1.4507 4.864 2.432 1.365.9813 2.389 2.176 3.072 3.584.725 1.408 1.088 3.136 1.088 5.184 0 2.176-.427 4.0747-1.28 5.696-.853 1.5787-2.027 2.9013-3.52 3.968-1.451 1.024-3.179 1.792-5.184 2.304-2.005.4693-4.181.704-6.528.704-3.499 0-6.827-.5333-9.984-1.6-3.115-1.1093-5.952-2.7093-8.512-4.8l2.752-4.864c.683.7253 1.557 1.4507 2.624 2.176 1.109.7253 2.347 1.3867 3.712 1.984 1.408.5547 2.901 1.024 4.48 1.408 1.621.3413 3.307.512 5.056.512 3.243 0 5.76-.576 7.552-1.728s2.688-2.88 2.688-5.184c0-1.28-.299-2.3467-.896-3.2-.555-.896-1.387-1.664-2.496-2.304s-2.496-1.1947-4.16-1.664c-1.621-.512-3.477-1.024-5.568-1.536-2.304-.5547-4.331-1.152-6.08-1.792s-3.221-1.408-4.416-2.304c-1.152-.896-2.027-1.984-2.624-3.264s-.896-2.816-.896-4.608c0-2.176.405-4.096 1.216-5.76s1.941-3.072 3.392-4.224 3.179-2.00534 5.184-2.56c2.005-.597336 4.181-.896002 6.528-.896002 3.072 0 5.845.469334 8.32 1.408002 2.475.93867 4.672 2.19733 6.592 3.776zm40.6 30.784v5.12h-30.848v-45.440002h30.272v5.120002h-24.512v14.72h21.312v4.8h-21.312v15.68z" fill="#ed293b"/></svg>